<?xml version="1.0" encoding="utf-8"?>
<!-- Generator: Adobe Illustrator 16.0.0, SVG Export Plug-In . SVG Version: 6.00 Build 0)  -->
<!DOCTYPE svg PUBLIC "-//W3C//DTD SVG 1.1//EN" "http://www.w3.org/Graphics/SVG/1.1/DTD/svg11.dtd">
<svg version="1.1" id="Слой_1" xmlns="http://www.w3.org/2000/svg" xmlns:xlink="http://www.w3.org/1999/xlink" x="0px" y="0px"
	 width="3600px" height="2000px" viewBox="0 0 3600 2000" enable-background="new 0 0 3600 2000" xml:space="preserve">
<g>
	<path fill="#8A89A9" d="M1112.903,1415.831c0,0-163.877-143.223-132.023-379.059c32.983-244.195,206.378-374.116,432.587-324.806
		c184.902,40.306,304.021,14.452,495.233-100.764c313.552-188.933,717.695,15.609,611.967,381.681
		c-51.166,177.151,163.566,264.685-16.176,423.323L1112.903,1415.831z"/>
	<g opacity="0.4">
		<g>
			<g>
				<path fill="#3A3A5B" d="M2062.021,809.772c0,0,101.793-102.886,131.91-80.603
					C2224.048,751.452,2062.021,809.772,2062.021,809.772z"/>
			</g>
			<g>
				<path fill="#3A3A5B" d="M2055.03,829.18c0,0,192.373-93.239,239.922-48.479c47.549,44.76-52.289,42.095-89.354,38.054
					C2168.536,814.712,2055.03,829.18,2055.03,829.18z"/>
			</g>
			<g>
				<path fill="#3A3A5B" d="M2046.188,808.057c0,0,0.768-4.937,1.799-12.16c2.014-14.093,5.033-36.89,5.323-48.724
					c0.439-17.9,14.427-31.026,30.758-13.313c16.331,17.714-31.964,69.109-31.964,69.109L2046.188,808.057z"/>
			</g>
		</g>
	</g>
	<path opacity="0.4" fill="#3A3A5B" d="M1541.143,985.212c8.911-28.929,57.872-18.112,57.872-18.112s31.704,52.248,41.396,53.8
		c9.691,1.55-18.383-49.964-18.383-49.964c18.921-1.178,66.185,23.589,66.185,23.589s-5.088,59.513,4.687,58.63
		s1.817-52.926,1.817-52.926c18.062,6.102,34.364,27.979,34.364,27.979c20.101,35.406-26.401,59.389-26.401,59.389
		s-1.318,20.662,10.642,44.826h0.001c0,0,2.732,4.479,5.408,12.025l-4.976-0.17c-0.36-1.35-0.764-2.654-1.218-3.908
		c0-0.01-0.002-0.018-0.009-0.023c-0.006-0.018-0.014-0.037-0.02-0.055c-0.314-0.779-0.767-1.891-1.331-3.244
		c-0.001-0.002-0.001-0.004-0.002-0.006c0-0.004-0.003-0.004-0.003-0.006c-1.417-3.027-2.369-5.262-2.964-6.871
		c-0.002-0.006-0.004-0.01-0.004-0.016c-4.234-9.496-10.377-21.893-14.666-24.596c0,0,0.577-0.756,1.144-2.244
		c-0.365,0.715-0.745,1.461-1.144,2.244c-9.143,17.957-51.831,19.537-75.388,13.857c-23.558-5.682-12.987-12.02,0.161-22.441
		s39.816-6.639,47.871-10.627c8.054-3.986-3.358-8.641-19.216-7.967c-15.858,0.674-24.31,16.219-49.943,17.773
		c-25.634,1.557-43.45-47.17-43.45-47.17c17.454,6.08,49.421-2.566,50.847-8.607c1.425-6.042-45.437-7.042-52.674-9.117
		C1544.506,1029.179,1532.232,1014.141,1541.143,985.212z"/>
	<path opacity="0.4" fill="#3A3A5B" d="M2282.567,1037.599c-9.02-23.328-48.748-11.579-48.748-11.579s-23.108,44.899-31.008,46.739
		c-7.898,1.838,12.262-42.246,12.262-42.246c-15.664,0.123-53.188,23.271-53.188,23.271s7.639,48.758-0.471,48.598
		c-8.107-0.162-4.56-43.518-4.56-43.518c-14.534,6.074-26.706,25.049-26.706,25.049c-14.519,30.346,25.198,47.422,25.198,47.422
		s2.282,16.955-6.178,37.563v0.002c0,0-1.993,3.85-3.762,10.225l4.091-0.43c0.219-1.131,0.477-2.23,0.777-3.291
		c0-0.008,0.002-0.014,0.006-0.02c0.005-0.016,0.01-0.031,0.014-0.047c0.215-0.66,0.523-1.602,0.91-2.75
		c0-0.002,0-0.004,0.001-0.004c0-0.004,0.003-0.004,0.003-0.006c0.992-2.578,1.648-4.475,2.045-5.836
		c0.002-0.004,0.003-0.008,0.003-0.012c2.94-8.072,7.286-18.646,10.665-21.121c0,0-0.52-0.59-1.072-1.785
		c0.342,0.568,0.699,1.162,1.072,1.785c8.575,14.271,43.852,13.104,62.939,7.057c19.089-6.045,10.009-10.656-1.432-18.484
		c-11.439-7.83-33.201-3.17-40.071-5.99s2.267-7.316,15.378-7.68c13.109-0.361,20.975,11.961,42.193,11.76
		c21.218-0.199,33.082-41.393,33.082-41.393c-14.033,6.021-40.883,0.744-42.406-4.152c-1.525-4.898,37.043-8.434,42.888-10.564
		C2282.339,1074.032,2291.585,1060.927,2282.567,1037.599z"/>
	<path opacity="0.4" fill="#3A3A5B" d="M1568.364,711.571c23.083-44.872,100.275-12.802,100.275-12.802s36.754,95.02,52.206,100.399
		c15.453,5.379-15.56-87.375-15.56-87.375c31.397,3.6,101.724,58.067,101.724,58.067s-25.752,96.183-9.452,97.593
		c16.3,1.41,18.458-86.328,18.458-86.328c27.859,15.295,48.218,55.965,48.218,55.965c22.637,63.985-60.695,89.749-60.695,89.749
		s-8.206,33.525,4.357,76.679l0.001,0.002c0,0,3.175,8.15,5.359,21.317l-8.115-1.735c-0.199-2.318-0.479-4.578-0.857-6.771
		c0.004-0.016,0.002-0.027-0.008-0.04c-0.004-0.031-0.012-0.063-0.016-0.096c-0.288-1.373-0.706-3.327-1.236-5.715
		c-0.002-0.002-0.002-0.006-0.003-0.008c0.001-0.006-0.005-0.007-0.003-0.012c-1.441-5.385-2.35-9.328-2.856-12.143
		c-0.002-0.01-0.003-0.018-0.003-0.027c-4.172-16.824-10.629-38.964-16.877-44.654c0,0,1.168-1.072,2.533-3.352
		c-0.808,1.069-1.65,2.183-2.533,3.352c-20.257,26.798-90.777,16.908-127.778,0.696s-17.799-23.521,6.826-36.781
		s67.288,0.745,81.672-3.443c14.385-4.188-2.984-15.165-29.207-18.696c-26.224-3.532-44.639,19.509-87.164,14.568
		s-57.517-90.121-57.517-90.121c26.867,15.083,81.86,10.239,85.966,0.74c4.106-9.498-72.511-24.842-83.782-30.365
		C1561.027,784.712,1545.281,756.442,1568.364,711.571z"/>
	<g opacity="0.4">
		<g>
			<g>
				<g>
					<g>
						<path fill="#3A3A5B" d="M1434.301,939.032h-59.356v-59.357h59.356V939.032z M1377.411,936.565h54.424v-54.424h-54.424V936.565
							z"/>
					</g>
				</g>
			</g>
			<g>
				<polygon fill="#3A3A5B" points="1384.891,902.304 1404.198,928.917 1427.196,886.383 1400.509,910.644 				"/>
			</g>
		</g>
	</g>
	<g opacity="0.4">
		<g>
			<g>
				<g>
					<g>
						<path fill="#3A3A5B" d="M1521.89,867.272h-59.356v-59.356h59.356V867.272z M1465,864.806h54.424v-54.424H1465V864.806z"/>
					</g>
				</g>
			</g>
			<g>
				<polygon fill="#3A3A5B" points="1472.479,830.545 1491.786,857.158 1514.784,814.624 1488.097,838.885 				"/>
			</g>
		</g>
	</g>
	<!-- <g>
		<path fill="#3A3A5B" d="M2082.021,779.772c0,0,101.793-102.886,131.91-80.603C2244.048,721.452,2082.021,779.772,2082.021,779.772
			z"/>
		<path fill="#3A3A5B" d="M2075.03,799.18c0,0,192.373-93.239,239.922-48.479c47.549,44.76-52.289,42.095-89.354,38.054
			C2188.536,784.712,2075.03,799.18,2075.03,799.18z"/>
		<path fill="#3A3A5B" d="M2066.188,778.057c0,0,0.768-4.937,1.799-12.16c2.014-14.093,5.033-36.89,5.323-48.724
			c0.439-17.9,14.427-31.026,30.758-13.313c16.331,17.714-31.964,69.109-31.964,69.109L2066.188,778.057z"/>
	</g>
	<path fill="#3A3A5B" d="M1561.143,955.212c8.911-28.929,57.872-18.112,57.872-18.112s31.704,52.249,41.396,53.8
		c9.691,1.55-18.383-49.964-18.383-49.964c18.921-1.178,66.185,23.589,66.185,23.589s-5.088,59.512,4.687,58.629
		c9.775-0.882,1.817-52.925,1.817-52.925c18.062,6.102,34.364,27.979,34.364,27.979c20.101,35.406-26.401,59.389-26.401,59.389
		s-1.318,20.662,10.642,44.826h0.001c0,0,2.732,4.479,5.408,12.025l-4.976-0.17c-0.36-1.35-0.764-2.654-1.218-3.908
		c0-0.01-0.002-0.018-0.009-0.023c-0.006-0.018-0.014-0.037-0.02-0.055c-0.314-0.779-0.767-1.891-1.331-3.244
		c-0.001-0.002-0.001-0.004-0.002-0.006c0-0.004-0.003-0.004-0.003-0.006c-1.417-3.027-2.369-5.262-2.964-6.871
		c-0.002-0.006-0.004-0.01-0.004-0.016c-4.234-9.496-10.377-21.893-14.666-24.596c0,0,0.577-0.756,1.144-2.244
		c-0.365,0.715-0.745,1.461-1.144,2.244c-9.143,17.957-51.831,19.537-75.388,13.857c-23.558-5.682-12.987-12.02,0.161-22.441
		s39.816-6.639,47.871-10.627c8.054-3.986-3.358-8.641-19.216-7.968c-15.858,0.674-24.31,16.22-49.943,17.774
		c-25.634,1.557-43.45-47.17-43.45-47.17c17.454,6.08,49.421-2.566,50.847-8.607c1.425-6.042-45.437-7.042-52.674-9.117
		C1564.506,999.179,1552.232,984.141,1561.143,955.212z"/>
	<path fill="#3A3A5B" d="M2302.567,1007.599c-9.02-23.328-48.748-11.579-48.748-11.579s-23.108,44.899-31.008,46.739
		c-7.898,1.838,12.262-42.246,12.262-42.246c-15.664,0.123-53.188,23.272-53.188,23.272s7.639,48.757-0.471,48.597
		c-8.107-0.162-4.56-43.519-4.56-43.519c-14.534,6.075-26.706,25.05-26.706,25.05c-14.519,30.346,25.198,47.422,25.198,47.422
		s2.282,16.955-6.178,37.563v0.002c0,0-1.993,3.85-3.762,10.225l4.091-0.43c0.219-1.131,0.477-2.23,0.777-3.291
		c0-0.008,0.002-0.014,0.006-0.02c0.005-0.016,0.01-0.031,0.014-0.047c0.215-0.66,0.523-1.602,0.91-2.75
		c0-0.002,0-0.004,0.001-0.004c0-0.004,0.003-0.004,0.003-0.006c0.992-2.578,1.648-4.475,2.045-5.836
		c0.002-0.004,0.003-0.008,0.003-0.012c2.94-8.072,7.286-18.646,10.665-21.121c0,0-0.52-0.59-1.072-1.785
		c0.342,0.568,0.699,1.162,1.072,1.785c8.575,14.271,43.852,13.104,62.939,7.057c19.089-6.045,10.009-10.656-1.432-18.484
		c-11.439-7.83-33.201-3.17-40.071-5.99s2.267-7.316,15.378-7.68c13.109-0.361,20.975,11.961,42.193,11.76
		c21.218-0.199,33.082-41.393,33.082-41.393c-14.033,6.021-40.883,0.744-42.406-4.152c-1.525-4.898,37.043-8.434,42.888-10.564
		C2302.339,1044.032,2311.585,1030.927,2302.567,1007.599z"/>
	<path fill="#3A3A5B" d="M1588.364,681.571c23.083-44.872,100.275-12.802,100.275-12.802s36.754,95.02,52.206,100.399
		c15.453,5.379-15.56-87.375-15.56-87.375c31.397,3.6,101.724,58.067,101.724,58.067s-25.752,96.183-9.451,97.593
		c16.3,1.41,18.457-86.328,18.457-86.328c27.858,15.295,48.218,55.965,48.218,55.965c22.637,63.985-60.695,89.749-60.695,89.749
		s-8.206,33.525,4.357,76.679l0.001,0.001c0,0,3.175,8.15,5.359,21.318l-8.115-1.735c-0.199-2.318-0.479-4.578-0.857-6.771
		c0.004-0.016,0.002-0.027-0.008-0.04c-0.004-0.032-0.012-0.063-0.016-0.095c-0.288-1.373-0.706-3.328-1.236-5.715
		c-0.002-0.003-0.002-0.006-0.003-0.009c0.001-0.005-0.005-0.006-0.003-0.012c-1.441-5.384-2.35-9.327-2.855-12.143
		c-0.003-0.009-0.004-0.017-0.004-0.026c-4.172-16.824-10.629-38.964-16.877-44.654c0,0,1.168-1.072,2.533-3.352
		c-0.809,1.069-1.65,2.183-2.533,3.352c-20.257,26.798-90.777,16.908-127.778,0.696s-17.799-23.521,6.826-36.781
		s67.288,0.745,81.672-3.443c14.385-4.188-2.984-15.165-29.207-18.696c-26.224-3.532-44.639,19.509-87.164,14.568
		s-57.517-90.121-57.517-90.121c26.867,15.083,81.86,10.239,85.966,0.74c4.106-9.498-72.511-24.842-83.782-30.365
		C1581.027,754.712,1565.281,726.442,1588.364,681.571z"/> -->
	<g>
		<rect x="1705.701" y="747.32" fill="#ECF1F9" width="494.304" height="668.44"/>
		<rect x="1721.133" y="760.335" fill="#FF2948" width="459.168" height="638.722"/>
		<g>
			<defs>
				<rect id="SVGID_1_" x="1752.482" y="803.851" width="120.289" height="120.289"/>
			</defs>
			<use xlink:href="#SVGID_1_"  overflow="visible" fill="#FFFFFF"/>
			<clipPath id="SVGID_2_">
				<use xlink:href="#SVGID_1_"  overflow="visible"/>
			</clipPath>
			<g clip-path="url(#SVGID_2_)">
				<polygon fill="#88A0E2" points="1852.571,1040.47 1757.461,1040.47 1825.643,887.586 1849.234,940.438 1857.852,991.833 				"/>
				<path fill="#FFFFFF" d="M1778.303,891.539l15.234-3.953l14.799-5.245c0,0,8.587,4.104,14.707,5.245
					c6.664,1.242,28.907,38.398,28.907,39.951c0,1.553-17.395,112.178-17.395,112.178h-83.969L1778.303,891.539z"/>
				<path fill="#FFCCBE" d="M1819.993,893.617c-7.537,1.297-18.522-0.529-26.468-6.036c3.846-8.617,5.499-15.452,6.134-19.886
					c0.037-0.236,0.065-0.464,0.094-0.685c0.294-2.299,0.296-3.863,0.2-4.583l19.397,0.453c0,0,5.247,2.548,5.208,4.224
					c-0.021,0.896-0.033,1.754-0.037,2.573c-0.013,2.231,0.031,4.181,0.109,5.855c0.24,5.452,1.012,12.054,1.012,12.054
					S1827.604,892.308,1819.993,893.617z"/>
				<path fill="#E98C94" d="M1824.631,875.532c-14.762,2.498-23.105-5.732-24.971-7.836c-0.265-0.301-0.4-0.479-0.4-0.479
					c0.157-0.074,0.321-0.14,0.494-0.206c5.522-2.087,18.11-0.974,24.983,1.729C1824.724,870.971,1824.553,873.858,1824.631,875.532
					z"/>
				<path fill="#FFCCBE" d="M1794.227,861.042c4.998,13.483,22.893,9.917,30.509,7.698c2.145-0.621,3.471-1.138,3.471-1.138
					c2.352-1.085,3.055-5.205,2.814-10.401c-0.472-10.284-4.629-24.78-6.982-28.265c-3.541-5.243-9.426-10.559-26.759-2.992
					C1779.944,833.515,1787.819,843.768,1794.227,861.042z"/>
				<path fill="#2C2C2C" d="M1822.402,816.987c-6.143-4.528-11.621-5.519-15.611-5.572c-11.809-0.157-20.973,5.814-21.023,5.848
					c-13.662,9.057-15.566,21.037-4.68,37.302c11.512,17.2,18.53,13.417,18.53,13.417s-1.344-0.431-2.197-6.264
					c-0.048-0.332-0.083-0.61-0.109-0.85c-0.13-1.203-0.755-2.324-1.783-2.964c-2.12-1.321-3.872-6.124-2.573-7.77
					c1.567-1.986,4.524-0.415,5.626,0.997c0.917,0.973,2.287,1.132,3.369,0.155c4.098-3.705,0.104-9.006,3.885-13.326
					c3.781-4.32,26.459-2.377,27.943-15.129C1833.779,822.83,1828.107,821.192,1822.402,816.987z"/>
				<path fill="#80B4FF" d="M1825.643,887.586c0,0,23.822,49.152,26.929,87.104c3.106,37.953,0,65.779,0,65.779
					s15.49-37.039,16.961-80.925c0.653-19.506-2.475-54.822-9.101-61.071C1857.197,895.424,1847.496,892.514,1825.643,887.586z"/>
				<path fill="#80B4FF" d="M1799.113,952.585c-0.076,5.613-0.294,11.48-0.694,17.552c-1.399,21.323-5.036,45.183-12.628,69.578
					h-77.962c0,0,9.661-23.485,21.33-49.008c2.044-4.471,4.15-9.004,6.274-13.483c8.625-18.173,17.587-35.477,24.142-44.216
					c17.395-23.193,33.963-45.421,33.963-45.421S1799.633,914.19,1799.113,952.585z"/>
				<path fill="#9DB0F4" d="M1777.715,987.795c0,0-16.011,6.35-48.556,2.912c2.044-4.471,4.15-9.004,6.274-13.483L1777.715,987.795z
					"/>
				<path fill="#9DB0F4" d="M1799.113,952.585c-0.076,5.613-0.294,11.48-0.694,17.552c-10.491-0.567-48.01-2.634-47.832-3.168
					c0.207-0.622,3.471-14.91,3.471-14.91s31.541,7.662,44.995,0L1799.113,952.585z"/>
				<path fill="#FFB27D" d="M1784.424,969.454c0,0,11.183-6.639,16.36-6.322c5.177,0.316,13.46,1.973,14.702,6.322
					s-1.863,2.227-8.801,3.579c-4.092,0.797-6.596,6.672-11.907,7.189c-2.071,0.202-10.354-1.45-10.354-1.45V969.454z"/>
				<path fill="#80B4FF" d="M1793.537,887.586c0,0-28.621,3.384-36.076,10.425c-12.607,11.906-45.765,56.933-42.489,76.68
					c2.174,13.104,62.743,13.104,62.743,13.104s7.478-4.847,10.23-9.229c5.592-8.904,3.658-15.434,3.658-15.434l-37.461-12.73
					c0,0,18.272-17.715,32.354-18.637C1796.796,931.091,1793.537,887.586,1793.537,887.586z"/>
			</g>
		</g>
		<g>
			<g>
				<rect x="1904.599" y="877.731" fill="#ECF1F9" width="150.73" height="3.025"/>
				<rect x="1904.599" y="891.847" fill="#ECF1F9" width="150.73" height="3.025"/>
				<rect x="1904.599" y="906.13" fill="#ECF1F9" width="150.73" height="3.025"/>
			</g>
			<rect x="1904.599" y="794.856" fill="#ECF1F9" width="46.119" height="46.119"/>
			<rect x="1996.876" y="830.885" fill="#ECF1F9" width="58.453" height="5.321"/>
			<rect x="1984.144" y="843.345" fill="#ECF1F9" width="71.186" height="5.321"/>
		</g>
		<g>
			<g>
				<g>
					<defs>
						<rect id="SVGID_3_" x="1752.482" y="1145.579" width="120.289" height="120.289"/>
					</defs>
					<use xlink:href="#SVGID_3_"  overflow="visible" fill="#FFFFFF"/>
					<clipPath id="SVGID_4_">
						<use xlink:href="#SVGID_3_"  overflow="visible"/>
					</clipPath>
					<g clip-path="url(#SVGID_4_)">
						<path fill="#7398E6" d="M1776.726,1233.267l15.235-3.951l14.798-5.246c0,0,8.587,4.105,14.708,5.246
							c6.664,1.24,28.906,38.396,28.906,39.949c0,1.555,0.621,112.934,0.621,112.934l-101.984-0.756L1776.726,1233.267z"/>
						<path fill="#FFCCBE" d="M1818.416,1235.345c-7.537,1.297-18.522-0.527-26.467-6.035c3.845-8.617,5.499-15.451,6.134-19.885
							c0.037-0.236,0.065-0.465,0.093-0.686c0.294-2.299,0.296-3.863,0.2-4.584l19.396,0.453c0,0,5.247,2.549,5.208,4.225
							c-0.021,0.896-0.032,1.752-0.036,2.572c-0.014,2.23,0.03,4.18,0.107,5.855c0.242,5.451,1.014,12.055,1.014,12.055
							S1826.027,1234.036,1818.416,1235.345z"/>
						<path fill="#E98C94" d="M1823.053,1217.261c-14.762,2.496-23.105-5.732-24.969-7.836c-0.265-0.303-0.4-0.479-0.4-0.479
							c0.157-0.074,0.321-0.141,0.494-0.207c5.522-2.088,18.11-0.975,24.983,1.729
							C1823.146,1212.7,1822.976,1215.585,1823.053,1217.261z"/>
						<path fill="#FFCCBE" d="M1792.65,1202.771c4.997,13.482,22.893,9.916,30.51,7.697c2.144-0.621,3.471-1.139,3.471-1.139
							c2.352-1.084,3.055-5.205,2.814-10.4c-0.473-10.283-4.63-24.779-6.982-28.264c-3.543-5.244-9.426-10.561-26.759-2.992
							C1778.367,1175.243,1786.243,1185.495,1792.65,1202.771z"/>
						<path fill="#9B5265" d="M1820.826,1158.716c-6.144-4.529-11.623-5.52-15.612-5.572c-11.809-0.156-20.972,5.814-21.023,5.848
							c-13.661,9.059-15.566,21.037-4.68,37.303c11.511,17.199,18.53,13.416,18.53,13.416s-1.345-0.43-2.197-6.264
							c-0.048-0.332-0.083-0.609-0.109-0.85c-0.129-1.203-0.755-2.324-1.782-2.965c-2.12-1.322-3.873-6.123-2.574-7.77
							c1.568-1.986,4.524-0.414,5.626,0.996c0.917,0.973,2.288,1.133,3.368,0.156c4.099-3.705,0.104-9.008,3.884-13.326
							c3.783-4.32,26.459-2.377,27.945-15.131C1832.203,1164.558,1826.531,1162.921,1820.826,1158.716z"/>
						<path fill="#7398E6" d="M1824.066,1229.315c0,0,23.822,49.15,26.928,87.104s0,65.779,0,65.779s15.489-37.039,16.961-80.926
							c0.654-19.506-2.474-54.82-9.1-61.07C1855.621,1237.151,1845.92,1234.243,1824.066,1229.315z"/>
						<path fill="#7398E6" d="M1791.961,1229.315L1791.961,1229.315L1791.961,1229.315c0,0-28.623,3.383-36.078,10.424
							c-12.607,11.906-45.765,56.934-42.488,76.68c0.727,4.379,17.703,17.756,27.035,19.697c2.366,18.584-3.491,46.082-3.491,46.082
							l47.275-0.756c7.591-24.395,11.228-48.254,12.628-69.576c0.4-6.072,0.617-11.939,0.693-17.553
							C1798.056,1255.919,1791.961,1229.315,1791.961,1229.315z"/>
						<path fill="#3A3A5B" d="M1795.693,1224.243c0,0,11.977,9.793,19.073,11.502c0,0-6.588,3.484-27.284-5.809
							C1787.481,1229.937,1790.471,1224.894,1795.693,1224.243z"/>
						<path fill="#3A3A5B" d="M1823.459,1223.235c0,0,1.359,4.082,3.458,6.727c0,0-1.845,6.523-12.151,5.783
							C1814.766,1235.745,1823.865,1229.212,1823.459,1223.235z"/>
						<path fill="#3A3A5B" d="M1806.631,1231.921l14.211-1.732c0,0-0.443,8.334-4.725,11.656
							C1814.561,1243.056,1806.449,1233.401,1806.631,1231.921z"/>
						<path fill="#3A3A5B" d="M1812.964,1237.003c0,0,3.267,59.469,1.724,85.768c-0.852,14.531-2.963,35.479-2.625,37.506
							s9.989,11.488,9.989,11.488s9.496-8.842,9.722-12.672c0.225-3.828,2.929-59.469-13.922-122.707
							C1817.275,1234.22,1812.964,1237.003,1812.964,1237.003z"/>
					</g>
					<path clip-path="url(#SVGID_4_)" fill="#80B4FF" d="M1794.423,1223.235c0,0-3.647,0.252-10.067,7.686
						c0,0,10.362,8.898,19.824,11.15c0,0-0.391-6.898,2.451-10.15L1794.423,1223.235z"/>
					<path clip-path="url(#SVGID_4_)" fill="#80B4FF" d="M1823.459,1223.235l-4.977,7.375c0,0,5.068,3.803,6.758,8.363
						c0,0,3.48-5.678,3.178-8.668C1828.418,1230.306,1826.071,1224.14,1823.459,1223.235z"/>
				</g>
			</g>
			<g>
				<g>
					<rect x="1904.599" y="1231.45" fill="#ECF1F9" width="159.357" height="3.023"/>
					<rect x="1904.599" y="1245.565" fill="#ECF1F9" width="159.357" height="3.023"/>
					<rect x="1904.599" y="1259.849" fill="#ECF1F9" width="159.357" height="3.025"/>
				</g>
				<rect x="1904.599" y="1148.573" fill="#FFFFFF" width="46.119" height="46.121"/>
				<rect x="2002.157" y="1184.603" fill="#ECF1F9" width="61.799" height="5.322"/>
				<rect x="1988.696" y="1197.063" fill="#ECF1F9" width="75.26" height="5.32"/>
			</g>
		</g>
		<g>
			<g>
				<rect x="1752.482" y="971.854" fill="#ECF1F9" width="120.289" height="120.289"/>
				<g>
					<g>
						<g>
							<path fill="#2C2C2C" d="M1825.121,982.133c-7.373-2.048-17.55-0.338-19.232-0.203c-20.152,1.602-25.781,32.613-24.612,41.385
								c2.163,16.164-5.724,20.408-15.401,32.924c-10.555,13.645-11.833,26.281-8.406,35.904h51.164
								c10.975-9.65,25.963-22.883,35.369-31.072c1.313-0.486,2.494-1.102,3.556-1.838
								C1868.128,1045.055,1842.988,987.086,1825.121,982.133z"/>
							<path fill="#FFCCBE" d="M1826.715,1055.78c0.093,0.035-8.368,5.131-15.063,3.746c-6.295-1.297-12.694-9.811-12.61-9.834
								c2.588-0.686,4.963-3.592,3.93-19.066l1.199,0.158l20.174,2.687c0,0-0.058,6.3,0.303,12.206
								C1824.947,1050.638,1825.546,1055.323,1826.715,1055.78z"/>
							<path fill="#E98C94" d="M1824.346,1033.471c0,0-0.058,6.3,0.303,12.206c-11.17,0.391-17.705-9.408-20.477-14.893
								L1824.346,1033.471z"/>
							<path fill="#FFCCBE" d="M1828.422,1038.829c0,0-26.351,2.102-27.408-14.328c-1.056-16.43-5.168-27.225,11.611-29.261
								c16.78-2.037,20.455,4.022,22.142,9.42S1835.25,1037.858,1828.422,1038.829z"/>
							<path fill="#2C2C2C" d="M1831.947,996.14c0,0-13.338,17.672-24.242,21.223c-10.903,3.551-15.899,0.885-15.899,0.885
								s5.392-6.879,7.442-16.541c0.604-2.848,2.681-5.162,5.463-6.02C1812.525,993.277,1827.551,989.699,1831.947,996.14z"/>
							<path fill="#233862" d="M1821.426,997.091c0,0,6.631,4.115,9.209,7.675c2.486,3.435,4.951,12.403,4.402,16.296
								c0,0,4.951-18.462-1.633-25.488C1826.424,988.124,1821.426,997.091,1821.426,997.091z"/>
							<path fill="#80B4FF" d="M1850.558,1063.821c-0.466-1.709-1.541-3.236-3-4.588c-6.921-6.455-22.47-9.09-22.47-9.09v0.006
								c0,0-0.008,0.063-0.033,0.17v0.014c-0.225,0.832-1.406,4.162-6.65,4.162c-3.541,0-8.934-1.527-17.131-6.365
								c-0.041-0.027-0.082-0.048-0.121-0.074c-0.008-0.008-0.014,0-0.014-0.008v-0.006c0,0-21.544,1.324-28.999,11.725
								c-4.048,5.643-9.623,18.375-14.272,32.377h100.414C1854.842,1079.532,1851.639,1067.78,1850.558,1063.821z"/>
						</g>
					</g>
				</g>
			</g>
			<g>
				<g>
					<rect x="1904.599" y="1056.511" fill="#ECF1F9" width="156.41" height="3.023"/>
					<rect x="1904.599" y="1070.626" fill="#ECF1F9" width="156.41" height="3.025"/>
					<rect x="1904.599" y="1084.909" fill="#ECF1F9" width="156.41" height="3.025"/>
				</g>
				<rect x="1904.599" y="973.635" fill="#ECF1F9" width="46.119" height="46.12"/>
				<rect x="1990.124" y="1009.665" fill="#ECF1F9" width="65.205" height="5.32"/>
				<rect x="1975.923" y="1022.124" fill="#ECF1F9" width="79.406" height="5.32"/>
			</g>
			<polygon fill="#3A3A5B" points="1913.317,992.724 1927.657,1012.491 1944.741,980.897 1924.918,998.919 			"/>
		</g>
		<g>
			<rect x="1834.18" y="1328.765" fill="#ECF1F9" width="158.274" height="2.654"/>
			<rect x="1834.18" y="1341.448" fill="#ECF1F9" width="158.274" height="2.656"/>
			<rect x="1834.18" y="1356.79" fill="#ECF1F9" width="158.274" height="2.654"/>
		</g>
		<g>
			<path fill="#ECF1F9" d="M1768.328,1334.429c2.13-2.998,4.357-8.26,2.67-11.969c-1.547-3.402-4.605-1.826-6.686,0.145
				c-3.101,2.939-4.863,6.98-6.188,10.967c-1.616,4.863-2.931,9.932-3.456,15.039c-0.422,4.107-0.701,10.443,1.945,13.951
				c2.247,2.979,5.861,0.533,8.354-0.863c7.868-4.412,14.425-11.463,16.245-20.492c0.234-1.162-1.203-2.227-2.118-1.232
				c-1.807,1.963-3.016,4.361-3.092,7.076c-0.042,1.488,0.095,3.852,1.89,4.281c2.11,0.504,3.751-2.426,4.66-3.824
				c1.828-2.813,2.943-5.963,3.492-9.26c-0.815-0.225-1.629-0.449-2.444-0.674c-0.351,2.398,0.079,6.67,3.636,5.93
				c3.366-0.699,3.647-6.484,3.753-9.08c0.057-1.406-2.209-1.752-2.489-0.338c-0.464,2.344-0.443,4.641,0.297,6.932
				c0.373,1.154,0.939,2.172,1.488,3.246c0.532,0.861,0.988,1.762,1.366,2.701c0.793,1.939,0.109,2.766-2.049,2.475
				c-0.252,0.621-0.504,1.24-0.757,1.861c5.971-2.35,12.459-5.576,12.79-12.822c0.074-1.631-2.46-1.627-2.535,0
				c-0.27,5.947-6.148,8.498-10.928,10.379c-0.787,0.311-1.157,1.072-0.757,1.861c1.389,2.742,5.204,2.461,6.494-0.258
				c0.855-1.805,0.448-3.771-0.354-5.51c-1.614-3.496-3.414-6.131-2.61-10.191c-0.829-0.111-1.659-0.225-2.489-0.336
				c-0.056,1.367-0.181,2.715-0.56,4.041c-0.107,0.477-0.263,0.939-0.467,1.385c-0.4,1.58-0.862,1.047-1.384-1.602
				c0.232-1.584-2.174-2.293-2.444-0.674c-0.515,3.092-1.512,6.016-3.237,8.654c-0.785,1.201-1.942,3.604-1.827,0.822
				c0.085-2.076,0.976-3.791,2.35-5.285c-0.706-0.41-1.412-0.82-2.118-1.232c-1.193,5.922-4.513,10.938-9.089,14.824
				c-2.182,1.854-5.015,4.16-7.781,5.104c-1.068,0.363-2.799,0.457-3.744-0.463c-0.373-0.361-0.51-1.785-0.618-2.293
				c-0.428-2.01-0.565-4.07-0.521-6.121c0.141-6.463,1.945-13.242,4.233-19.27c1.098-2.893,2.581-5.771,4.856-7.918
				c2.885-2.721,2.896,1.604,2.476,3.576c-0.406,1.908-1.321,3.602-2.441,5.178
				C1765.193,1334.481,1767.39,1335.749,1768.328,1334.429L1768.328,1334.429z"/>
		</g>
	</g>
	<path fill="#2C2C2C" d="M2628.241,1417.628H1001.545c-1.065,0-1.936-0.871-1.936-1.936v-0.256c0-1.066,0.871-1.938,1.936-1.938
		h1626.696c1.064,0,1.936,0.871,1.936,1.936v0.258C2630.177,1416.757,2629.306,1417.628,2628.241,1417.628z"/>
	<g>
		<g>
			<path fill="#FFCCBE" d="M2054.333,1406.923c-0.455,6.207-9.212,6.273-19.15,5.119c-9.938-1.152-7.295,1.363-21.209,1.557
				c-13.915,0.193-18.711-4.404-19.385-6.395c-0.6-1.762,6.102-3.248,13.271-4.994c0.901-0.215,1.807-0.443,2.711-0.672
				c8.084-2.055,13.438-8.105,20.354-13.389c6.551-5.004,15-23.115,15-23.115l19.008-0.859c0,0-8.004,16.234-11.011,23.234
				c-1.769,4.117-1.017,9.174-0.247,13.057C2054.087,1402.577,2054.497,1404.737,2054.333,1406.923z"/>
			<path fill="#2C2C2C" d="M2035.183,1412.042c-9.938-1.152-7.295,1.363-21.209,1.557c-13.915,0.193-18.711-4.404-19.385-6.395
				c-0.6-1.762,6.102-3.248,13.271-4.994l0.085,0.131c0,0,8.958,4.811,20.417,3.658c9.34-0.936,18.869-4.834,25.313-5.533
				c0.412,2.111,0.822,4.271,0.658,6.457C2053.878,1413.13,2045.121,1413.196,2035.183,1412.042z"/>
		</g>
		<g>
			<path fill="#FFCCBE" d="M2185.61,1408.21c-0.449,6.207-9.207,6.283-19.145,5.139c-9.939-1.143-7.295,1.371-21.209,1.578
				s-18.715-4.387-19.391-6.373c-0.602-1.764,6.099-3.256,13.266-5.01c0.902-0.217,1.807-0.445,2.711-0.674
				c8.082-2.064,13.429-8.119,20.34-13.41c6.547-5.01,0.006-34.676,0.006-34.676l20.906-2.035c0,0-1.002,24.979-0.988,36.334
				c0.005,4.48,2.066,8.789,2.84,12.67C2185.359,1403.864,2185.772,1406.024,2185.61,1408.21z"/>
			<path fill="#2C2C2C" d="M2166.466,1413.349c-9.939-1.143-7.295,1.371-21.209,1.578s-18.715-4.387-19.391-6.373
				c-0.602-1.764,6.099-3.256,13.266-5.01l0.086,0.133c0,0,8.964,4.799,20.421,3.635c9.339-0.945,18.864-4.854,25.308-5.559
				c0.413,2.111,0.826,4.271,0.664,6.457C2185.161,1414.417,2176.403,1414.493,2166.466,1413.349z"/>
		</g>
		<path fill="#2C2C2C" d="M2124.597,895.479c-3.598-14.802,1.619-21.696,6.325-25.367c2.233-5.448,4.78-9.375,7.386-10.856
			c4.752-2.701,10.445-2.996,14.428-2.76c-1.025-1.059-3.043-1.444-3.043-1.444c2.471-0.367,7.983,2.083,7.983,2.083
			c34.353-13.237,39.753,37.345,39.03,49.097c-0.717,11.75-0.621,25.591,17.253,34.85c34.102,17.667-11.334,84.241-11.334,84.241
			c0.866-9.496-42.95-59.611-65.811-74.62c-5.565-8.193-7.542-22.666-7.69-23.805c0.96,11.476,2.924,17.913,4.678,21.537
			C2123.384,938.844,2121.839,915.817,2124.597,895.479z"/>
		<path fill="#FFCCBE" d="M2138.168,951.449c-0.114,0.051,11.038,5.842,19.427,3.547c7.89-2.151,13.045-12.382,12.937-12.405
			c-3.341-0.664-4.305-5.255-4.233-24.988l-1.511,0.297l-25.399,5.03c0,0,0.577,7.994,0.594,15.524
			C2139.999,944.777,2139.615,950.773,2138.168,951.449z"/>
		<path fill="#E98C94" d="M2139.388,922.93c0,0,0.577,7.994,0.594,15.524c14.214-0.4,21.727-13.367,24.806-20.554L2139.388,922.93z"
			/>
		<path fill="#4C4B73" d="M2036.043,1375.097c-1.245,3.904,1.555,7.928,5.647,8.119l9.924,0.463l10.498,0.322
			c2.627,0.08,5.135-1.064,6.796-3.102c8.38-10.281,34.177-44.547,49.824-94.334c0.44-1.396,0.903-2.809,1.396-4.238
			c10.334-30.133,31.758-67.955,43.047-102.189c1.797-5.453,3.41-10.586,4.857-15.443c0.465-1.557,0.916-3.084,1.346-4.59
			c8.318-28.906,10.729-47.887,12.948-68.166l-81.521,0.652C2100.806,1092.591,2083.644,1225.985,2036.043,1375.097z"/>
		<path fill="#ECF1F9" d="M2112.218,1045.749c0.205,38.793-5.691,55.436-5.691,55.436s34.904,17.734,76.389,4.68
			c0.488-0.154,29.68-8.42,29.68-8.42c-0.695-1.57-6.462-27.525-7.139-28.967c-8.758-18.809-11.145-26.705-12.184-32.487
			c-1.928-10.795-1.969-21.965-1.01-32.501c2.531-27.887,10.061-51.039,10.061-51.039c-11.304-2.572-21.889-7.09-33.654-11.502
			c-2.705,3.37-10.979,6.896-18.154,6.734c-8.264-0.182-10.943-3.719-10.514-7.582c-8.807,4.9-15.833,9.528-15.833,9.528
			c-7.483,13-22.663,25.625-23.762,45.567C2100.134,1000.101,2112.212,1044.661,2112.218,1045.749z"/>
		<path fill="#5F9AA8" d="M2182.327,1050.073c3.563,5.043,10.396,35.697,27.393,39.553c-8.758-21.85-15.408-31.43-16.447-38.146
			c-1.928-12.539-1.969-25.514-1.01-37.752c-5.689-9.973-9.936-16.811-9.936-16.811c-0.447-1.612-9.043-28.19-11.797-4.433
			C2167.781,1016.247,2178.347,1044.431,2182.327,1050.073z"/>
		<path fill="#FFCCBE" d="M2134.64,930.061c0,0,33.629,0.554,33.652-20.393c0.023-20.948,4.379-34.984-17.092-36.224
			c-21.47-1.24-25.65,6.749-27.358,13.738C2122.134,894.173,2125.894,929.376,2134.64,930.061z"/>
		<path fill="#2C2C2C" d="M2135.884,872.931c0,0,9.209,24.575,23.339,28.209s20.26-0.152,20.26-0.152s-10.839-8.61-13.089-23.64
			C2166.394,877.348,2142.83,861.234,2135.884,872.931z"/>
		<path fill="#2C2C2C" d="M2138.167,874.926c0,0-6.877,5.487-8.553,10.821c-1.677,5.334-2.43,16.315-5.631,15.942
			c0,0-6.938-16.704,0.858-26.153C2133.108,865.516,2138.167,874.926,2138.167,874.926z"/>
		<polygon fill="#FFCCBE" points="2081.727,1072.675 2065.843,1121.099 2074.902,1124.731 2101.165,1081.948 		"/>
		<path fill="#80B4FF" d="M2124.55,946.778c0,0-18.729,7.432-24.148,19.018c-5.42,11.587-13.628,89.307-16.896,97.289
			c-3.269,7.98-5.727,14.299-5.727,14.299s9.443,7.957,18.939,8.543C2106.215,1086.513,2124.55,946.778,2124.55,946.778z"/>
		<path fill="#80B4FF" d="M2140.001,940.101c0,0-19.457,48.065-20.029,57.792c-0.572,9.727-2.289,159.07-2.289,159.07
			s1.145,6.867-12.016,4.006s-16.594-5.723-16.594-5.723s12.588-92.123,9.155-124.166s26.321-84.303,26.321-84.303L2140.001,940.101
			z"/>
		<path fill="#3A3A5B" d="M2051.614,1383.679l11.398,0.35c2.037,0.063,3.988-0.814,5.287-2.387
			c7.662-9.279,34.385-44.014,50.433-95.076c0.44-1.396,0.903-2.809,1.396-4.238c10.334-30.133,31.758-67.955,43.047-102.189
			c1.797-5.453,3.41-10.586,4.857-15.443c0.465-1.557,0.916-3.084,1.346-4.59l-12.006-9.109c0,0-36.042,58.365-47.2,113.289
			C2100.479,1311.995,2061.661,1369.403,2051.614,1383.679z"/>
		<path fill="#4C4B73" d="M2156.119,1269.401c-0.194,25.268,1.003,81.588,4.079,109.119c0.281,2.52,2.411,4.422,4.947,4.422h8.506
			c3.586,0,6.268-0.027,8.049-0.053c1.542-0.023,2.859-1.129,3.156-2.643c8.458-43.043,14.513-78.803,18.944-109.701
			c3.708-25.865,7.003-48.037,9.538-67.125c2.553-19.209,4.326-35.293,4.961-48.883c0.098-2.141,0.172-4.223,0.212-6.244
			c0.04-2.031,0.052-4.004,0.034-5.922l-70.438-6.865C2148.995,1182.306,2156.233,1253.878,2156.119,1269.401z"/>
		<path fill="#3A3A5B" d="M2173.651,1382.942c3.221,0,5.713-0.021,7.479-0.045c1.873-0.025,3.475-1.367,3.836-3.205
			c8.4-42.797,14.422-78.383,18.835-109.146c3.708-25.865,7.003-48.037,9.538-67.125c2.553-19.209,4.326-35.293,4.961-48.883
			l-25.846,15.203c0,0,16.496,5.818,10.203,49.879C2196.362,1263.679,2182.412,1376.704,2173.651,1382.942z"/>
		<path fill="#80B4FF" d="M2170.325,1154.104c0,0,4.961,17.926,22.127,15.637s41.576-12.588,41.576-12.588
			s-7.336-23.18-16.457-53.633c-11.043-36.865-24.713-84.393-31.156-114.37c-1.808-8.4-3.044-15.416-3.502-20.439l-14.241-27.631
			c0,0-21.234,47.658-22.378,59.674C2145.149,1012.771,2170.325,1154.104,2170.325,1154.104z"/>
		<path fill="#FFCCBE" d="M2187.466,998.964l-18.797-57.883c0.051,0.023,23.74,7.048,35.656,13.068c0,0,7.448,9.603,12.057,31.756
			c0,0,4.869,53.187-6.002,72.641c0,0-34.332,6.867-89.264-12.016v-12.588c0,0,60.081,3.146,72.383,4.578L2187.466,998.964z"/>
		<path fill="#7398E6" d="M2171.087,1025.932c0.766,19.454,5.344,57.22,46.159,77.435c0.108,0.053,0.218,0.109,0.325,0.154
			c-11.043-36.865-24.713-84.393-31.156-114.37C2178.92,1000.354,2170.669,1015.22,2171.087,1025.932z"/>
		<path fill="#80B4FF" d="M2168.669,941.081c0,0,34.844,2.455,43.236,21.146s11.063,80.871,0.381,99.18
			c0,0-14.705,4.189-40.713-0.676c-0.319-0.059-0.64-0.119-0.961-0.182c0,0-8.297-20.313-0.859-24.318
			c0,0,21.936,1.144,19.646-6.104C2187.11,1022.88,2168.669,941.081,2168.669,941.081z"/>
		<g>
			<path fill="#3A3A5B" d="M2081.31,1041.72l1.025,3.299l57.176-17.785c0,0,0.762-0.869,0.386-2.023
				c-0.415-1.273-1.413-1.275-1.413-1.275L2081.31,1041.72z"/>
			<polygon fill="#3A3A5B" points="2077.175,1044.837 2081.31,1041.72 2082.335,1045.019 			"/>
		</g>
		<path fill="#FFCCBE" d="M2068.1,1119.774c0,0-14.503,8.016-16.412,14.123c-1.908,6.105-0.597,18.893,1.705,18.701
			c2.303-0.191,5.737-13.74,7.646-14.693c1.908-0.955,4.58-3.814,4.58-1.717s-1.908,5.914-0.953,6.486
			c0.953,0.572,4.008-5.34,6.106-6.486s2.981-10.584,5.021-13.117C2077.833,1120.538,2068.1,1119.774,2068.1,1119.774z"/>
		<path fill="#FFCCBE" d="M2121.116,1033.942c0,0-12.971-7.988-18.412-6.76s-19.309,11.273-12.639,13.447
			c6.671,2.176,12.072-0.106,14.638,1.473c2.565,1.58,4.459,4.468,16.413,4.428
			C2133.071,1046.491,2121.116,1033.942,2121.116,1033.942z"/>
	</g>
	<g>
		<g>
			<g>
				<rect x="1417.958" y="1115.962" fill="#4C4B73" width="229.98" height="274.227"/>
				<g>
					
						<rect x="1532.783" y="1260.206" transform="matrix(-0.9009 0.4341 -0.4341 -0.9009 3528.7639 1784.0084)" fill="#B0C3F4" width="55.833" height="69.365"/>
					<polygon fill="#3A3A5B" points="1647.938,1258.931 1647.938,1339.028 1637.976,1333.274 1626.394,1326.589 1617.064,1321.202 
						1614.166,1319.532 1608.201,1316.087 1611.956,1309.581 1632.886,1273.333 1642.886,1256.015 					"/>
					
						<rect x="1546.754" y="1289.828" transform="matrix(-0.3779 0.9258 -0.9258 -0.3779 3396.0532 367.1821)" fill="#3A3A5B" width="55.832" height="69.365"/>
					
						<rect x="1482.773" y="1294.681" transform="matrix(-0.8112 0.5848 -0.5848 -0.8112 3513.5381 1524.2661)" fill="#B0C3F4" width="55.832" height="69.366"/>
					<polygon fill="#3A3A5B" points="1647.938,1296.628 1647.938,1367.985 1636.971,1376.718 1606.469,1338.396 1605.203,1336.806 
						1602.391,1333.274 1602.198,1333.032 1611.757,1325.429 1611.763,1325.423 1617.064,1321.202 1645.17,1298.831 					"/>
					<polygon fill="#3A3A5B" points="1647.938,1304.579 1647.938,1316.212 1626.394,1326.589 1612.527,1333.274 1607.586,1335.651 
						1605.203,1336.806 1602.192,1338.253 1599.796,1333.274 1592.472,1318.079 1582.602,1297.597 1572.081,1275.759 
						1580.51,1271.7 1622.377,1251.526 1632.886,1273.333 1645.17,1298.831 					"/>
					<rect x="1467.764" y="1333.274" fill="#3A3A5B" width="180.174" height="56.584"/>
				</g>
				<rect x="1361.685" y="1115.966" fill="#605E87" width="223.479" height="274.225"/>
				<g>
					
						<rect x="1426.706" y="1260.206" transform="matrix(-0.9009 0.4341 -0.4341 -0.9009 3327.1233 1830.0518)" fill="#CED1EC" width="55.833" height="69.365"/>
					
						<rect x="1505.908" y="1270.363" transform="matrix(-0.7778 -0.6285 0.6285 -0.7778 1906.7195 3284.1121)" fill="#CED1EC" width="55.831" height="69.364"/>
					
						<rect x="1440.677" y="1289.828" transform="matrix(-0.3779 0.9258 -0.9258 -0.3779 3249.9009 465.4212)" fill="#CED1EC" width="55.832" height="69.366"/>
					
						<rect x="1376.696" y="1294.681" transform="matrix(-0.8112 0.5848 -0.5848 -0.8112 3321.4136 1586.2998)" fill="#CED1EC" width="55.832" height="69.366"/>
					
						<rect x="1512.726" y="1298.593" transform="matrix(-0.6228 -0.7824 0.7824 -0.6228 1456.9812 3369.0071)" fill="#CED1EC" width="55.833" height="69.366"/>
					
						<rect x="1478.292" y="1260.206" transform="matrix(-0.9009 0.4341 -0.4341 -0.9009 3425.1824 1807.6606)" fill="#CED1EC" width="55.833" height="69.365"/>
					<rect x="1361.685" y="1333.276" fill="#CED1EC" width="223.479" height="56.58"/>
				</g>
				<polygon fill="#CED1EC" points="1585.169,1269.454 1572.081,1275.759 1585.164,1302.913 				"/>
			</g>
			<rect x="1361.685" y="1115.966" fill="#FFD186" width="223.479" height="47.596"/>
			<rect x="1585.164" y="1115.966" fill="#FCBA64" width="63.578" height="47.596"/>
			<g>
				<path fill="#3A3A5B" d="M1424.483,1129.431h5.019l5.402,14.555l5.403-14.555h4.9l-8.355,20.814h-4.015L1424.483,1129.431z"/>
				<path fill="#3A3A5B" d="M1446.155,1139.765c0-5.875,4.635-10.688,11.012-10.688c6.377,0,10.953,4.752,10.953,10.688
					c0,5.873-4.635,10.686-11.012,10.686C1450.731,1150.45,1446.155,1145.698,1446.155,1139.765z M1463.366,1139.765
					c0-3.543-2.598-6.496-6.259-6.496c-3.661,0-6.2,2.895-6.2,6.496c0,3.541,2.598,6.494,6.259,6.494
					S1463.366,1143.366,1463.366,1139.765z"/>
				<path fill="#3A3A5B" d="M1476.093,1133.624h-6.288v-4.193h17.123v4.193h-6.288v16.473h-4.547V1133.624z"/>
				<path fill="#3A3A5B" d="M1490.413,1129.431h15.588v4.045h-11.071v4.191h9.742v4.045h-9.742v4.34h11.219v4.045h-15.736V1129.431z
					"/>
			</g>
		</g>
		<rect x="1573.833" y="1389.856" fill="#2C2C2C" width="11.336" height="23.738"/>
		<rect x="1636.629" y="1389.856" fill="#2C2C2C" width="11.336" height="23.738"/>
		<rect x="1361.698" y="1389.856" fill="#2C2C2C" width="11.336" height="23.738"/>
	</g>
	<g>
		
			<rect x="1444.231" y="985.817" transform="matrix(-0.9966 0.0821 -0.0821 -0.9966 3047.4333 1949.9316)" fill="#FFFFFF" width="78.754" height="103.666"/>
		
			<rect x="1447.87" y="989.233" transform="matrix(-0.9966 0.0821 -0.0821 -0.9966 3047.4976 1949.708)" fill="#FF2948" width="71.554" height="96.604"/>
		<g>
			
				<rect x="1453.608" y="1035.792" transform="matrix(-0.9966 0.0821 -0.0821 -0.9966 3024.6362 1947.7799)" fill="#ECF1F9" width="37.301" height="0.612"/>
			
				<rect x="1453.843" y="1038.639" transform="matrix(-0.9966 0.0822 -0.0822 -0.9966 3025.3635 1953.4034)" fill="#ECF1F9" width="37.3" height="0.612"/>
			
				<rect x="1454.08" y="1041.518" transform="matrix(-0.9966 0.0821 -0.0821 -0.9966 3026.0264 1959.2139)" fill="#ECF1F9" width="37.3" height="0.613"/>
		</g>
		
			<rect x="1453.707" y="1026.363" transform="matrix(-0.9966 0.0821 -0.0821 -0.9966 3006.9043 1930.3792)" fill="#ECF1F9" width="20.082" height="1.345"/>
		
			<rect x="1453.699" y="1029.683" transform="matrix(-0.9966 0.0821 -0.0821 -0.9966 3011.5327 1936.8215)" fill="#ECF1F9" width="24.456" height="1.346"/>
		<g>
			
				<rect x="1497.793" y="1022.229" transform="matrix(-0.9966 0.0821 -0.0821 -0.9966 3092.3081 1934.4332)" fill="#FFFFFF" width="17.16" height="17.16"/>
			<polygon fill="#3A3A5B" points="1511.263,1028.507 1507.181,1035.234 1500.859,1025.541 1507.702,1030.804 			"/>
		</g>
		<g>
			
				<rect x="1456.383" y="1069.741" transform="matrix(-0.9966 0.0822 -0.0822 -0.9966 3032.9907 2015.2937)" fill="#ECF1F9" width="37.3" height="0.611"/>
			
				<rect x="1456.617" y="1072.586" transform="matrix(-0.9966 0.0821 -0.0821 -0.9966 3033.6431 2021.0374)" fill="#ECF1F9" width="37.3" height="0.613"/>
			
				<rect x="1456.855" y="1075.468" transform="matrix(-0.9966 0.0822 -0.0822 -0.9966 3034.4028 2026.6887)" fill="#ECF1F9" width="37.3" height="0.611"/>
		</g>
		
			<rect x="1456.482" y="1060.311" transform="matrix(-0.9966 0.0821 -0.0821 -0.9966 3015.1885 1998.0079)" fill="#ECF1F9" width="20.082" height="1.346"/>
		
			<rect x="1456.475" y="1063.631" transform="matrix(-0.9966 0.0821 -0.0821 -0.9966 3019.8262 2004.4354)" fill="#ECF1F9" width="24.456" height="1.346"/>
		<g>
			
				<rect x="1500.569" y="1056.179" transform="matrix(-0.9966 0.0822 -0.0822 -0.9966 3100.6931 2001.8959)" fill="#FFFFFF" width="17.16" height="17.16"/>
			<polygon fill="#3A3A5B" points="1514.038,1062.456 1509.957,1069.183 1503.634,1059.489 1510.477,1064.751 			"/>
		</g>
		<g>
			
				<rect x="1450.154" y="1008.223" transform="matrix(-0.9966 0.0821 -0.0821 -0.9966 3015.4753 1893.019)" fill="#ECF1F9" width="37.301" height="0.611"/>
			
				<rect x="1450.388" y="1011.069" transform="matrix(-0.9966 0.0822 -0.0822 -0.9966 3016.2014 1898.6409)" fill="#ECF1F9" width="37.3" height="0.611"/>
			
				<rect x="1450.626" y="1013.95" transform="matrix(-0.9966 0.0822 -0.0822 -0.9966 3016.9121 1904.3733)" fill="#ECF1F9" width="37.3" height="0.611"/>
		</g>
		
			<rect x="1450.253" y="998.794" transform="matrix(-0.9966 0.0821 -0.0821 -0.9966 2997.7437 1875.6172)" fill="#ECF1F9" width="20.082" height="1.345"/>
		
			<rect x="1450.245" y="1002.115" transform="matrix(-0.9966 0.0822 -0.0822 -0.9966 3002.4067 1881.9994)" fill="#ECF1F9" width="24.456" height="1.344"/>
		<g>
			
				<rect x="1494.339" y="994.659" transform="matrix(-0.9966 0.0821 -0.0821 -0.9966 3083.1477 1879.6708)" fill="#FFFFFF" width="17.16" height="17.16"/>
			<polygon fill="#3A3A5B" points="1507.809,1000.937 1503.727,1007.665 1497.405,997.972 1504.248,1003.233 			"/>
		</g>
	</g>
	<g>
		<path fill="#FFCCBE" d="M1433.885,1003.522c1.36-0.961,2.417-3.098,3.813-4.693c1.037-1.185,3.007-2.328,3.007-2.328
			s0.203,2.775,0.414,5.021c4.123-1.54,10.322-2.958,20.221-1.058c1.982,0.381,3.779,1.508,4.87,3.206
			c1.009,1.571,1.386,3.536-1.139,5.106c-5.052,3.141-3.587,1.26-10.607,5.833c-7.02,4.573-15.615,5.741-20.75,2.53l-6.891-1.148
			l-0.855-11.334C1425.967,1004.657,1429.895,1004.188,1433.885,1003.522z"/>
		<path fill="#FFCCBE" d="M1253.299,908.448c0,0,16.246,19.274,36.936,11.211c0,0,4.451-10.765,4.514-18.7
			c0.007-0.977,0.02-1.922,0.035-2.823c0.111-8.936,0.412-13.95,0.412-13.95s-0.005-0.002-0.021-0.004
			c-0.941-0.393-31.628-12.991-31.603-11.944C1264.098,896.406,1253.299,908.448,1253.299,908.448z"/>
		<path fill="#E98C94" d="M1266.652,878.001c2.959,5.485,13.113,16.216,28.13,20.136c0.111-8.936,0.412-13.95,0.412-13.95
			s-0.005-0.002-0.021-0.004C1294.324,883.955,1265.772,876.384,1266.652,878.001z"/>
		<path fill="#FFCCBE" d="M1301.621,883.258c0,0-34.51,8.114-39.231-13.455s-12.356-35.048,9.478-41.14
			c21.834-6.092,27.931,1.198,31.258,8.014C1306.453,843.493,1310.477,880.592,1301.621,883.258z"/>
		<path fill="#9B5265" d="M1263.57,875.68c-0.471,0.302-7.897,2.583-21.959-25.431c-2.207-4.398-3.711-13.912,1.434-22.317
			c5.146-8.406,23.392-15.015,38.551-17.892c15.16-2.876,18.799,5.654,22.369,14.227c3.747,8.999,14.57,16.408,14.57,16.408
			c-13.073,7.303-28.818-3.142-34.272-1.424c-5.455,1.718-7.381,10.314-7.791,13.07c-0.409,2.755-1.038,5.045-7.897,2.584
			c-6.859-2.461-3.102,9.72-2.003,12.05C1266.572,866.955,1267.504,873.159,1263.57,875.68z"/>
		<g>
			<path fill="#2C2C2C" d="M1174.671,1413.56h-20.896c-4.38,0-9.248-4.387-10.467-12.416c-1.218-8.035-10.223-12.416-12.172-18.99
				c-1.95-6.574,8.035-15.826,8.035-15.826l1.669-2.146l1.736-2.234l16.553,3.893c0,0,0.408,3.941,0.664,8.961
				c0.177,3.625,0.274,7.816,0.067,11.49c-0.487,8.768,2.456,18.205,10.241,19.91
				C1177.894,1407.905,1174.671,1413.56,1174.671,1413.56z"/>
			<path fill="#2C2C2C" d="M1320.142,1413.56h-55.391c-0.53-0.104-0.932-0.219-1.176-0.342c-3.698-1.852-2.541-16.01-2.096-20.385
				c0.085-0.811,0.146-1.285,0.146-1.285s19.477-15.578,22.157-3.648c0.085,0.371,0.183,0.736,0.287,1.096v0.006
				c3.381,11.162,18.496,16.23,27.226,17.643C1317.967,1407.729,1319.697,1411.616,1320.142,1413.56z"/>
			<path fill="#FF4D67" d="M1308.978,1094.14c0,0-2.958,36.904-6.434,81.268c-4.726,60.264-10.408,134.287-10.971,148.311
				c-0.971,24.352-4.872,63.301-4.872,63.301s-9.247,9.256-27.754,5.355c0,0-16.492-55.604-21.203-114.436
				c-0.073-0.965-0.146-1.936-0.219-2.908c-4.382-59.889-11.196-186.004-11.196-186.004L1308.978,1094.14z"/>
			<path fill="#FF2948" d="M1308.978,1094.14c0,0-2.958,36.904-6.434,81.268l-64.799,102.531c-0.073-0.965-0.146-1.936-0.219-2.908
				c-4.382-59.889-11.196-186.004-11.196-186.004L1308.978,1094.14z"/>
			<path fill="#FF4D67" d="M1295.469,1098.522c0,0-53.317,133.658-88.375,196.471s-46.013,80.342-46.013,80.342
				s-20.085-8.035-21.912-13.512c0,0,13.406-121.264,36.884-150.824c13.267-16.703,28.85-66.828,29.581-84.357
				s4.748-52.223,4.748-52.223L1295.469,1098.522z"/>
		</g>
		<g>
			<path fill="#FFCCBE" d="M1173.877,1074.237l-0.563,8.598c0,0,5.669,15.27-10.215,23.104c0,0-6.799,2.742-7.075-2.551
				c-0.275-5.293,0.594-3.303,0.042-10.758c-0.553-7.453,2.377-14.496,7.308-16.869l4.045-4.668L1173.877,1074.237z"/>
			<path fill="#3A3A5B" d="M1167.674,1080.497c5.901,1.895,6.846,1.465,6.846,1.465s28.724-52.294,31.633-57.082
				c2.909-4.787,60.986-58.642,60.986-58.642l-14.925-55.654c0,0-66.055,85.537-73.188,97.811
				c-11.787,20.282-18.694,67.388-18.694,67.388S1163.038,1079.009,1167.674,1080.497z"/>
		</g>
		<path fill="#4C4B73" d="M1320.233,988.089c-0.208,11.429-0.871,24.277-1.767,37.327c-0.055,0.774-0.11,1.548-0.165,2.321
			c-0.573,8.084-3.028,36.279-3.156,37.418c-2.912,29.596-5.964,52.979-6.531,53.338c-0.676,0.451-1.438,0.676-2.272,0.578
			c-7.762-0.975-30.918,0.787-49.877-3.338c-15.999-3.375-29.773-9.771-44.37-18.398c-1.937-1.145-6.354-4.18-5.995-6.445
			c0.354-2.492,1.005-6.092,1.834-10.619c2.875-15.742,7.84-42.822,9.534-74.515c0.329-5.903,0.81-11.733,1.432-17.466
			c1.626-14.932,4.234-29.115,7.731-41.713c6.5-23.407,16.053-41.33,28.037-48.342c1.566-0.877,9.991,4.484,17.729,9.449
			c7.146,4.582,14.67,5.849,21.987,5.209l6.439,7.122c7.798,9.065,16.102,21.134,18.369,38.29c0.17,1.267,0.316,2.613,0.438,4.045
			C1320.258,969.337,1320.41,978.183,1320.233,988.089z"/>
		<path fill="#3A3A5B" d="M1320.233,988.089c-0.208,11.429-0.871,24.277-1.767,37.327c-0.055,0.774-0.11,1.548-0.165,2.321
			c-44.333-27.75-51.163-78.529-51.163-78.529c21.81,0.957,39.136,5.97,52.491,13.141
			C1320.258,969.337,1320.41,978.183,1320.233,988.089z"/>
		<path fill="#4C4B73" d="M1432.249,1009.947c0.457-6.575-2.948-7.669-2.948-7.669s-66.844-12.114-72.527-13.902
			c-5.682-1.787-54.271-52.332-54.271-52.332s-18.625-21.004-33.874-16.366c-13.252,4.031-18.432,14.367-20.195,24.215
			c-2.101,11.735,3.308,23.543,13.47,29.775c22.811,13.992,68.479,41.559,79.234,44.711c23.938,7.02,88.253,0.563,88.253,0.563
			S1431.89,1015.112,1432.249,1009.947z"/>
	</g>
	<g>
		<g>
			<path fill="#ECF1F9" d="M1444.301,919.032h-59.356v-59.357h59.356V919.032z M1387.411,916.565h54.424v-54.424h-54.424V916.565z"
				/>
		</g>
		<polygon fill="#5DD782" points="1394.891,882.304 1414.198,908.917 1437.196,866.383 1410.509,890.644 		"/>
	</g>
	<g>
		<g>
			<path fill="#ECF1F9" d="M1531.89,847.272h-59.356v-59.356h59.356V847.272z M1475,844.806h54.424v-54.424H1475V844.806z"/>
		</g>
		<polygon fill="#5DD782" points="1482.479,810.545 1501.786,837.158 1524.784,794.624 1498.097,818.885 		"/>
	</g>
	<g>
		<path fill="#FFB27D" d="M2445.317,1038.096c0,0-1.362-13.538,5.718-13.073c7.08,0.463,8.954,3.71,8.163,6.313
			c-0.791,2.602-7.676,11.209-7.676,11.209L2445.317,1038.096z"/>
		<path fill="#FFD186" d="M2434.257,1110.063c-12.354,0.494-37.105-6.758-46.445-10.596c-8.867-3.641-16.545-7.543-23.092-11.359
			c-1.758-1.021-3.433-2.039-5.027-3.045c-16.852-10.629-24.694-19.84-24.694-19.84s31.583-27.306,44.323-20.156
			c14.947,8.391,40.717,35.502,45.068,32.719c4.901-3.135,18.578-41.557,18.578-41.557c9.004-1.717,10.953,5.095,10.953,5.095
			S2451.789,1109.36,2434.257,1110.063z"/>
		<path fill="#2C2C2C" d="M2382.093,1396.983c0,0-1.295,14.977,1.871,16.535l40.514-0.084c0,0,0-4.676-6.508-5.713
			c-6.507-1.041-17.938-4.85-19.873-13.336C2396.161,1385.901,2382.093,1396.983,2382.093,1396.983z"/>
		<path fill="#FF4D67" d="M2411.836,1215.728c-0.2,9.793-0.671,19.893-1.592,28.971c-4.376,43.078-5.913,95.125-6.542,105.158
			c-1.09,17.42-4.531,45.248-4.531,45.248s-6.826,6.479-20.13,3.387c0,0-11.022-40.08-13.485-82.283
			c-0.038-0.693-0.076-1.389-0.111-2.084c-0.285-5.58-0.584-11.961-0.889-18.84c-2.027-46.08-4.23-114.531-4.23-114.531
			l50.84-11.939C2411.165,1168.813,2412.335,1191.313,2411.836,1215.728z"/>
		<path fill="#FF2948" d="M2411.836,1215.728c-12.885,22.229-37.443,63.184-47.28,79.557c-2.027-46.08-4.23-114.531-4.23-114.531
			l50.84-11.939C2411.165,1168.813,2412.335,1191.313,2411.836,1215.728z"/>
		<path fill="#F4B3A4" d="M2305.794,1208.485c0,0-3.155,12.375-2.639,15.123c0.518,2.75,3.599,12.064,5.52,14.375
			c1.922,2.311,2-10.045,3.276-11.984c1.277-1.941,0.585,4.611,1.608,5.148c1.025,0.537,2.73-4.963,3.492-6.914
			c0.76-1.949-2.73-8.736-3.053-13.604C2313.677,1205.765,2305.794,1208.485,2305.794,1208.485z"/>
		<path fill="#2C2C2C" d="M2281.168,1379.964c0,0-7.211,6.58-5.804,11.256c1.406,4.676,7.914,7.793,8.794,13.508
			s4.396,8.832,7.562,8.832s15.094,0,15.094,0s2.33-4.021-3.298-5.234c-5.628-1.211-7.751-7.928-7.398-14.162
			c0.352-6.234-0.527-14.547-0.527-14.547l-11.96-2.77L2281.168,1379.964z"/>
		<path fill="#FF4D67" d="M2403.153,1181.796c0,0-47.591,101.826-72.917,146.506c-25.325,44.68-33.239,57.148-33.239,57.148
			s-14.51-5.717-15.829-9.613c0,0,9.685-86.254,26.646-107.281c9.583-11.881,20.84-47.537,21.368-60.004
			c0.527-12.469,11.646-42.229,11.646-42.229L2403.153,1181.796z"/>
		<path fill="#FFD186" d="M2412.022,1176.497c0,0-15.496,16.678-41.83,21.715c-11.557,2.213-35.016,4.35-40.834-3.879
			c-1.366-1.932-1.379-4.791-1.076-9.258c0.783-11.607,3.703-34.047-9.478-79.141c-1.228-4.195-2.055-8.219-2.534-12.055
			c-2.878-23.068,6.852-39.441,18.275-46.746c27.86-17.821,41.475-5.513,41.475-5.513s15.951,7.454,23.239,29.175
			C2413.833,1114.245,2412.022,1176.497,2412.022,1176.497z"/>
		<path fill="#F4B3A4" d="M2342.843,1042.472c0,0,15.947,5.173,30.498-0.809c0,0,2.809-1.469,0.508-4.631
			c0.249-3.049,0.198-2.768,0.231-4.999c0.177-5.157-0.08-8.047-0.08-8.047l-10.718-6.983l-10.17-6.691
			C2355.753,1031.44,2342.843,1042.472,2342.843,1042.472z"/>
		<path fill="#E98C94" d="M2353.663,1018.433c0,0,7.629,11.372,20.417,13.601c0.177-5.157-0.161-10.429-0.161-10.429l-10.637-4.602
			L2353.663,1018.433z"/>
		<path fill="#F4B3A4" d="M2383.522,1021.269c0,0-25.818,9.635-31.563-6.272s-12.945-25.376,3.296-32.201
			c16.241-6.824,21.653-1.9,24.884,2.942C2383.369,990.58,2390.089,1018.353,2383.522,1021.269z"/>
		<path fill="#2C2C2C" d="M2335.877,984.583c-0.297-0.229-0.899-0.343-2.155-0.166c0,0,0.869-0.817,2.191-1.113
			c-0.081-1.78,0.234-5.021,3.063-6.353c0,0-1.43,1.168-1.276,3.047c2.747-4.22,9.622-8.254,30.388-10.68
			c27.367-3.196,21.895,15.811,18.812,18.557c-3.081,2.746-12.977-1.158-19.375,0.642c-6.397,1.8-5.778,11.436-7.729,13.161
			c-1.949,1.725-1.533-0.726-4.783-1.485c-3.249-0.759-2.557,4.241-1.06,7.284c1.497,3.045-1.766,8.094-1.766,8.094s0,0-5.022-3.643
			c-5.024-3.643-12.661-21.768-11.574-26.168C2335.685,985.372,2335.778,984.979,2335.877,984.583z"/>
		<path fill="#FCBA64" d="M2328.282,1185.075c0.783-11.607,3.703-34.047-9.478-79.141c-1.228-4.195-2.055-8.219-2.534-12.055h0.003
			c9.793-3.23,27.638,3.953,27.638,3.953S2348.105,1157.442,2328.282,1185.075z"/>
		<path fill="#FFD186" d="M2335.715,1046.397c0,0-20.214,11.451-27.13,36.996c-5.668,20.932-14.43,52.068-15.483,61.805
			c-1.054,9.734,10.688,66.742,10.688,66.742s1.656,1.207,5.715,0.396c3.883-0.777,5.69-3.404,5.69-3.404s2.808-37.994,2.083-55.934
			c-0.302-7.455,34.504-54.586,53.289-60.658C2377.944,1089.956,2335.715,1046.397,2335.715,1046.397z"/>
		<path fill="#FCBA64" d="M2349.718,1032.835c0,0-3.375,1.65-9.922,10.359c0,0,12.19,15.289,29.787,13.293
			c0,0-2.171-7.922-2.059-12.956C2367.524,1043.531,2352.815,1041.893,2349.718,1032.835z"/>
		<path fill="#FCBA64" d="M2367.524,1043.531c0,0,9.398,2.452,11.654,9.21c0,0,1.992-5.812,0.236-9.094
			c-1.756-3.281-5.566-6.615-5.566-6.615S2375.132,1041.183,2367.524,1043.531z"/>
		<g>
			<g>
				<path fill="#ECF1F9" d="M2496.878,1005.806c0,0-34.831-0.99-75.025,6.409l-4.197-10.582l-4.605-11.593
					c0,0,40.352-17.372,64.607-41.563L2496.878,1005.806z"/>
				<path fill="#FF4D67" d="M2477.104,947.916l19.997,59.031l0,0c2.925-0.865,4.523-4.008,3.504-6.881l-17.6-49.599
					C2482.153,948.064,2479.438,946.891,2477.104,947.916L2477.104,947.916z"/>
				<path fill="#CED1EC" d="M2496.878,1005.806c0,0-34.831-0.99-75.025,6.409l-4.197-10.582
					C2455.421,993.92,2496.878,1005.806,2496.878,1005.806z"/>
				<path fill="#FF4D67" d="M2432.966,1010.087l-10.883,1.914c0.166,0.007-10.109,2-13.479-7.107
					c-0.309-0.623-0.506-1.239-0.645-1.965c-2.617-11.354,3.615-13.445,3.615-13.445l14.006-5.458l4.45,15.748c0,0,0,0-0.003,0.057
					L2432.966,1010.087z"/>
				<path fill="#FF2948" d="M2432.966,1010.087l-10.883,1.914c0.166,0.007-10.109,2-13.479-7.107
					c6.158-4.479,21.427-5.119,21.427-5.119s0,0-0.003,0.057L2432.966,1010.087z"/>
			</g>
			<path fill="#CED1EC" d="M2458.015,1049.741L2458.015,1049.741c-3.888,0.777-7.705-1.768-8.482-5.656l-6.885-34.451
				c-0.777-3.888,1.768-7.705,5.656-8.482l0,0c3.889-0.777,7.706,1.77,8.482,5.657l6.886,34.45
				C2464.449,1045.147,2461.903,1048.965,2458.015,1049.741z"/>
		</g>
		<path fill="#FFB27D" d="M2457.087,1016.381c0,0-5.324,2.122-4.35,4.467c0.977,2.345,7.748,5.567,8.815,3.718
			S2460.436,1014.403,2457.087,1016.381z"/>
		<path fill="#FFB27D" d="M2445.215,1035.964c0,0-1.005-5.447-1.067-7.949c-0.063-2.503-0.787-4.394-0.197-4.465
			c0.588-0.07,0.914,0.365,1.154,1.17s1.695,5.666,1.695,5.666l-0.465,4.816L2445.215,1035.964z"/>
	</g>
</g>
</svg>
